<?xml version="1.0" encoding="UTF-8"?>
<svg id="_ロゴ" data-name="ロゴ" xmlns="http://www.w3.org/2000/svg" version="1.1" viewBox="0 0 1417.32 425.2">
  <!-- Generator: Adobe Illustrator 29.3.1, SVG Export Plug-In . SVG Version: 2.1.0 Build 151)  -->
  <defs>
    <style>
      .st0 {
        fill: none;
      }

      .st1 {
        fill: #ed746b;
      }

      .st2 {
        fill: #5fbcd4;
      }

      .st3 {
        fill: #f8bf79;
      }
    </style>
  </defs>
  <rect class="st0" y="0" width="1417.32" height="425.2"/>
  <g>
    <g>
      <path class="st3" d="M842.92,155.12c-14.1,0-27.66,3.94-39.37,11.2.02-4.47-3.32-7.91-7.96-7.91h-26.72c-5.08,0-9.8,4.12-10.54,9.2l-30.68,211.19c-.74,5.08,2.78,9.2,7.86,9.2h26.72c5.08,0,9.8-4.12,10.54-9.2l11.76-80.97c9.67,7.44,22.05,11.48,35.98,11.48,41.69,0,79.28-33.95,85.58-77.28,6.26-43.13-21.49-76.91-63.18-76.91ZM861.35,232.03c-2.87,19.75-20.61,35.82-39.56,35.82-17.78,0-28.82-13.52-29.08-26.27l1.13-7.79c.81-.14,1.63-.29,2.44-.51,15.26-4.04,26.42-19.65,26.05-35.67,3.14-.89,6.44-1.4,9.85-1.4,18.94,0,32.02,16.07,29.15,35.82Z"/>
      <path class="st3" d="M1126.22,155.12c-14.1,0-27.66,3.94-39.37,11.2.02-4.47-3.32-7.91-7.96-7.91h-26.72c-5.08,0-9.8,4.12-10.54,9.2l-30.68,211.19c-.74,5.08,2.78,9.2,7.86,9.2h26.72c5.08,0,9.8-4.12,10.54-9.2l11.76-80.97c9.67,7.44,22.05,11.48,35.98,11.48,41.69,0,79.28-33.95,85.58-77.28,6.26-43.13-21.49-76.91-63.18-76.91ZM1144.64,232.03c-2.87,19.75-20.61,35.82-39.56,35.82-17.78,0-28.82-13.52-29.08-26.27l1.17-8.08c.36-.08.72-.13,1.08-.23,15.12-4,26.21-19.37,26.06-35.24,3.54-1.15,7.28-1.82,11.17-1.82,18.94,0,32.02,16.07,29.15,35.82Z"/>
    </g>
    <g>
      <path class="st2" d="M481.67,155.12c-40.9,0-80.54,35.05-86.57,76.55-6.43,44.27,24.3,77.65,71.49,77.65,5.66,0,25.53-.68,43.4-9.49,3.24-1.6,5.57-4.72,6.06-8.12l3.83-26.35c.51-3.51-1.02-6.71-3.95-8.26-2.93-1.55-6.74-1.16-9.83.99-12.24,8.52-26.46,9.79-33.86,9.79-4.06,0-7.88-.44-11.39-1.31l77.23-67.16c3.81-3.31,4.88-8.6,2.48-12.27-14.1-21.54-33.37-32-58.9-32ZM437.26,238.78c-.09-2.26.04-4.64.4-7.11,2.91-20,18.92-35.09,37.26-35.09,2.67,0,5.65.62,8.5,1.67l-46.16,40.52Z"/>
      <path class="st2" d="M631.85,260.2c-3.15-1.46-7.15-.79-10.19,1.71-4.08,3.35-8.23,4.85-13.46,4.85-7.43,0-6.99-6.97-6.68-9.1l26.26-180.78c.74-5.08-2.78-9.2-7.86-9.2h-26.72c-5.08,0-9.8,4.12-10.54,9.2l-26.63,183.34c-4.07,27.99,12.24,49.1,37.94,49.1,13.34,0,24.8-3.22,34.05-9.57,2.54-1.74,4.27-4.45,4.69-7.32l3.46-23.79c.53-3.66-1.16-6.98-4.31-8.44Z"/>
      <path class="st2" d="M726.28,260.2c-3.15-1.46-7.15-.79-10.19,1.71-4.08,3.35-8.23,4.85-13.46,4.85-7.43,0-6.99-6.97-6.68-9.1l26.26-180.78c.74-5.08-2.78-9.2-7.86-9.2h-26.72c-5.08,0-9.8,4.12-10.54,9.2l-26.63,183.34c-4.07,27.99,12.24,49.1,37.94,49.1,13.34,0,24.8-3.22,34.05-9.57,2.54-1.74,4.27-4.45,4.69-7.32l3.46-23.79c.53-3.66-1.16-6.98-4.31-8.44Z"/>
      <path class="st2" d="M1002.99,260.2c-3.15-1.46-7.15-.79-10.19,1.71-4.08,3.35-8.23,4.85-13.46,4.85-7.55,0-7.44-6.36-7.05-9.1l13.08-90.04c.74-5.08-2.78-9.2-7.86-9.2h-26.35c-5.08,0-9.8,4.12-10.54,9.2l-13.45,92.6c-4.07,27.99,12.24,49.1,37.94,49.1,12.95,0,24.34-3.18,33.87-9.45,2.63-1.73,4.44-4.5,4.87-7.44l3.46-23.79c.53-3.66-1.16-6.98-4.31-8.44Z"/>
      <path class="st2" d="M1296.36,155.49c-42.61,0-82.29,34.5-88.45,76.91-6.16,42.41,23.5,76.91,66.11,76.91s82.29-34.5,88.45-76.91c6.16-42.41-23.5-76.91-66.11-76.91ZM1320.81,231.17c0,19.83-24.98,36.32-41.24,36.32-18.59-.29-32.02-15.66-29.93-34.04,1.33-.15,2.67-.36,4.03-.72,14.3-3.79,24.87-18.01,25.33-32.99,3.61-1.09,7.37-1.69,11.19-1.69,19.25,0,32.82,14.78,30.63,33.12Z"/>
      <path class="st2" d="M372.19,59.8c-13.87-4.01-29.6-.02-42.07,10.67-12.63,10.83-19.19,26.1-17.56,40.85,1.89,17.11,14.79,29.24,31.89,30.48l-9.12,62.8c-4.39,30.25-23.99,48.31-52.43,48.31s-42.79-18.06-38.39-48.31l19.54-134.56c.53-3.66-2.01-6.64-5.68-6.64h-38.49c-3.66,0-7.07,2.98-7.6,6.64l-19.63,135.13c-4.41,30.33-22.64,47.73-50.03,47.73s-39.99-17.4-35.58-47.73l19.63-135.13c.53-3.66-2.01-6.64-5.68-6.64h-39.07c-3.66,0-7.07,2.98-7.6,6.64l-20.05,138.03c-4.01,27.59,1.77,50.87,16.71,67.33,14.63,16.12,37.04,24.64,64.8,24.64,30.77,0,57.81-13.87,74.44-37.64,9.64,23.18,33.48,37.64,63.52,37.64,27.76,0,52.64-8.52,71.96-24.64,19.72-16.45,32.26-39.74,36.27-67.33l15.49-106.61c2.86-19.72-7.28-36.47-25.25-41.67Z"/>
    </g>
    <g>
      <path class="st1" d="M977.05,80.95c-16.17,0-31.27,13.32-33.64,29.7l-3.04,15.04c-1.49,7.39,4.15,14.29,11.69,14.29h34.43c5.7,0,10.6-4.03,11.7-9.62l3.29-16.68c.25-1,.45-2.01.6-3.04,2.38-16.37-8.84-29.7-25.02-29.7Z"/>
      <path class="st1" d="M943.86,63.53l-10.13-12.1c-2.26-2.7-6.66-2.7-9.8,0-3.14,2.7-3.86,7.1-1.59,9.8l10.13,12.1c1.13,1.35,2.8,2.03,4.57,2.03s3.66-.68,5.23-2.03c3.14-2.7,3.86-7.1,1.59-9.81Z"/>
      <path class="st1" d="M915.34,95.96h-17.11c-3.82,0-7.44,3.11-8.06,6.93-.62,3.82,1.98,6.93,5.81,6.93h17.11c3.82,0,7.44-3.11,8.06-6.93.62-3.82-1.98-6.93-5.81-6.93Z"/>
      <path class="st1" d="M973.88,64.55c.61,2.55,2.82,4.35,5.73,4.35,1.19,0,2.37-.3,3.44-.84.13-.07.27-.14.4-.21.52-.3,1.01-.65,1.46-1.04.34-.3.66-.62.95-.97.93-1.11,1.58-2.44,1.82-3.87l2.78-17.11c.23-1.43.01-2.77-.56-3.87-.95-1.84-2.86-3.06-5.25-3.06h0c-3.11,0-6.08,2.05-7.41,4.87-.31.65-.53,1.34-.65,2.06l-2.78,17.11c-.12.72-.12,1.41-.02,2.06.03.18.06.35.1.52Z"/>
      <path class="st1" d="M1042.19,56.34c.3-1.86-.13-3.6-1.23-4.9-2.26-2.7-6.66-2.7-9.8,0l-14.07,12.1c-3.14,2.7-3.86,7.1-1.59,9.81,1.13,1.35,2.8,2.03,4.57,2.03s3.66-.68,5.23-2.03l14.07-12.1c1.52-1.31,2.52-3.05,2.82-4.9Z"/>
      <path class="st1" d="M1052.18,95.96h-17.11c-3.82,0-7.44,3.11-8.06,6.93-.62,3.82,1.98,6.93,5.81,6.93h17.11c3.82,0,7.44-3.11,8.06-6.93.62-3.82-1.98-6.93-5.81-6.93Z"/>
    </g>
  </g>
</svg>